Coordinates
version=1
nRows=14
nColumns=24
inDegrees=yes

Units are S.I. units (second, meters, Newtons, ...)
Angles are in degrees.

endheader
time	pelvis_tilt	pelvis_list	pelvis_rotation	pelvis_tx	pelvis_ty	pelvis_tz	hip_flexion_r	hip_adduction_r	hip_rotation_r	knee_angle_r	ankle_angle_r	subtalar_angle_r	mtp_angle_r	hip_flexion_l	hip_adduction_l	hip_rotation_l	knee_angle_l	ankle_angle_l	subtalar_angle_l	mtp_angle_l	lumbar_extension	lumbar_bending	lumbar_rotation
      5.09000000	    -15.55332540	     -9.15432551	      5.14515787	      0.66399449	     -0.02295603	     -0.04053015	     30.32990096	      8.98730568	     -8.30197420	    -16.33036764	     -6.46608870	      1.55006419	     11.23535529	     17.95057217	    -16.09412496	     -9.87083794	    -57.36914879	    -30.36734729	     14.07396369	     27.07185043	     13.51648999	     10.60390694	     -7.07985367
      5.09500000	    -15.41028608	     -9.14100792	      5.10310377	      0.66940281	     -0.02202172	     -0.03998113	     29.66906454	      9.13137324	     -8.16962517	    -16.01965469	     -6.28766223	      1.56924411	     11.27068579	     18.62145658	    -16.14737593	     -9.69484423	    -58.40279470	    -29.65846791	     13.13100041	     26.93272479	     13.37727719	     10.59213628	     -6.87561682
      5.10000000	    -15.28100462	     -9.05768392	      5.05553362	      0.67477219	     -0.02106037	     -0.03946729	     29.01644042	      9.20173526	     -7.99080198	    -15.71513821	     -6.09822815	      1.61863391	     11.29509012	     19.28004453	    -16.10085758	     -9.53292202	    -59.35437508	    -28.92673867	     12.34055521	     26.71114425	     13.24523252	     10.50853752	     -6.67327151
      5.10500000	    -15.16239685	     -8.94868798	      4.97336590	      0.68017483	     -0.02010887	     -0.03889837	     28.36841013	      9.26227518	     -7.78035160	    -15.41192453	     -5.91032986	      1.67202656	     11.30204538	     19.90595593	    -16.03178393	     -9.41272325	    -60.20877097	    -28.18362130	     11.78137097	     26.60095229	     13.12776316	     10.39892934	     -6.47077340
      5.11000000	    -15.02621743	     -8.80124358	      4.88696845	      0.68550068	     -0.01912568	     -0.03833904	     27.69947835	      9.29054283	     -7.50640354	    -15.11043979	     -5.71801550	      1.67626631	     11.22309237	     20.50533318	    -15.91465789	     -9.29650948	    -61.01638730	    -27.40115334	     11.52697280	     26.27727103	     12.97677751	     10.26133920	     -6.18058718
      5.11500000	    -14.94010336	     -8.65952865	      4.79703097	      0.69083512	     -0.01820440	     -0.03777370	     27.08582516	      9.30726188	     -7.31429575	    -14.80638635	     -5.53957403	      1.75866885	     11.23998962	     21.13716917	    -15.78592417	     -9.16070605	    -61.69189084	    -26.82960116	     11.31415131	     26.52907074	     12.88664531	     10.11880470	     -5.92250834
      5.12000000	    -14.77539594	     -8.49427247	      4.67583161	      0.69623983	     -0.01717971	     -0.03714271	     26.34461519	      9.35110359	     -6.89053939	    -14.43975429	     -5.39984578	      1.60088713	     11.10673476	     21.63332317	    -15.66206995	     -9.12583547	    -62.28634487	    -26.23813013	     11.19634320	     26.62550593	     12.72061438	      9.96399665	     -5.64823027
      5.12500000	    -14.66371828	     -8.30840719	      4.54763357	      0.70156955	     -0.01623061	     -0.03652050	     25.68433666	      9.34814241	     -6.58349279	    -14.11582488	     -5.23729619	      1.59755814	     11.01795775	     22.17480718	    -15.49247732	     -9.05700565	    -62.80140065	    -25.68096883	     11.30879605	     26.93347035	     12.59988401	      9.78428475	     -5.35334074
      5.13000000	    -14.52813743	     -8.11342063	      4.40233631	      0.70683647	     -0.01525309	     -0.03586717	     24.99330624	      9.34856880	     -6.21973624	    -13.77597107	     -5.11355167	      1.52100517	     10.87078859	     22.67021997	    -15.31633632	     -9.01517319	    -63.24082069	    -25.15389574	     11.50733232	     27.31207982	     12.44219111	      9.60239235	     -5.03226952
      5.13500000	    -14.40878284	     -7.89811887	      4.25588900	      0.71213419	     -0.01430421	     -0.03522377	     24.31025675	      9.31969770	     -5.85814687	    -13.42739134	     -4.97126140	      1.46407921	     10.74047054	     23.15984937	    -15.10861861	     -8.98587518	    -63.60166278	    -24.65335477	     11.78878113	     27.75593713	     12.31245376	      9.39549645	     -4.72156531
      5.14000000	    -14.26539784	     -7.68920539	      4.08358471	      0.71745540	     -0.01335832	     -0.03451315	     23.58955498	      9.31239368	     -5.44351799	    -13.06083951	     -4.83173603	      1.37238390	     10.56735493	     23.59502422	    -14.92655644	     -8.99900202	    -63.88810289	    -24.16245854	     12.15144105	     28.29662543	     12.16139688	      9.19964893	     -4.40651951
      5.14500000	    -14.16833767	     -7.43129558	      3.92853349	      0.72266771	     -0.01244371	     -0.03385616	     22.93658833	      9.22448801	     -5.10895095	    -12.71696277	     -4.70637144	      1.34661272	     10.46972862	     24.07715882	    -14.65456878	     -8.98561071	    -64.11137693	    -23.67230104	     12.57332681	     28.81142901	     12.04840057	      8.94514172	     -4.07526013
      5.15000000	    -14.03338251	     -7.19687323	      3.73914220	      0.72793093	     -0.01154202	     -0.03313003	     22.22702302	      9.17965181	     -4.70052485	    -12.34767212	     -4.57915254	      1.27825913	     10.35491065	     24.48797085	    -14.43883774	     -9.02959355	    -64.26900662	    -23.16406159	     13.04066414	     29.40429878	     11.90341342	      8.72472097	     -3.75240032
      5.15500000	    -13.94497675	     -6.92437648	      3.56426419	      0.73309043	     -0.01068318	     -0.03244239	     21.58793367	      9.06881551	     -4.37971304	    -12.00258958	     -4.46454781	      1.26923225	     10.29993953	     24.94907031	    -14.15152365	     -9.05434426	    -64.37365525	    -22.64195171	     13.51802495	     29.91714487	     11.79738114	      8.45520770	     -3.40814303
